<?xml version="1.0" encoding="UTF-8" standalone="no"?>
<!-- Created with Inkscape (http://www.inkscape.org/) -->

<svg
   width="64mm"
   height="64mm"
   viewBox="0 0 64 64"
   version="1.1"
   id="svg1"
   xml:space="preserve"
   inkscape:version="1.4.3 (0d15f75042, 2025-12-25)"
   sodipodi:docname="logo_light.svg"
   inkscape:export-filename="logo.png"
   inkscape:export-xdpi="76.199997"
   inkscape:export-ydpi="76.199997"
   xmlns:inkscape="http://www.inkscape.org/namespaces/inkscape"
   xmlns:sodipodi="http://sodipodi.sourceforge.net/DTD/sodipodi-0.dtd"
   xmlns="http://www.w3.org/2000/svg"
   xmlns:svg="http://www.w3.org/2000/svg"><sodipodi:namedview
     id="namedview1"
     pagecolor="#ffffff"
     bordercolor="#000000"
     borderopacity="0.25"
     inkscape:showpageshadow="2"
     inkscape:pageopacity="0.0"
     inkscape:pagecheckerboard="0"
     inkscape:deskcolor="#d1d1d1"
     inkscape:document-units="mm"
     showgrid="true"
     inkscape:zoom="3.5293377"
     inkscape:cx="101.01045"
     inkscape:cy="76.501606"
     inkscape:window-width="2560"
     inkscape:window-height="1375"
     inkscape:window-x="2240"
     inkscape:window-y="0"
     inkscape:window-maximized="1"
     inkscape:current-layer="layer1"
     showguides="false"><inkscape:grid
       id="grid1"
       units="mm"
       originx="0"
       originy="0"
       spacingx="0.99999997"
       spacingy="0.99999997"
       empcolor="#0099e5"
       empopacity="0.30196078"
       color="#0099e5"
       opacity="0.14901961"
       empspacing="4"
       enabled="true"
       visible="true" /><sodipodi:guide
       position="18.999999,36"
       orientation="1,0"
       id="guide5"
       inkscape:locked="false" /></sodipodi:namedview><defs
     id="defs1"><filter
       inkscape:collect="always"
       style="color-interpolation-filters:sRGB"
       id="filter16"
       x="-0.18809522"
       y="-0.11903556"
       width="1.3761904"
       height="1.2380711"><feGaussianBlur
         inkscape:collect="always"
         stdDeviation="1.0260028"
         id="feGaussianBlur16" /></filter><filter
       inkscape:collect="always"
       style="color-interpolation-filters:sRGB"
       id="filter17"
       x="-0.15556785"
       y="-0.051819185"
       width="1.3111357"
       height="1.1036384"><feGaussianBlur
         inkscape:collect="always"
         stdDeviation="0.64434662"
         id="feGaussianBlur17" /></filter></defs><g
     inkscape:label="Layer 1"
     inkscape:groupmode="layer"
     id="layer1"><g
       id="g46"
       transform="translate(9.2122295,-0.34767915)"><path
         style="opacity:1;fill:#30342c;fill-opacity:1;stroke:none;stroke-width:0.56965;stroke-linecap:round;stroke-linejoin:round;stroke-dasharray:none"
         d="m 17.222378,10.129424 c 1.249007,3.041588 1.71937,7.239218 1.008185,11.964539 l -4.632248,-0.512151 z"
         id="path46"
         sodipodi:nodetypes="cccc" /><path
         id="path1-9-0-52-6"
         style="fill:#6a9e7a;fill-opacity:1;stroke:none;stroke-width:1.1393;stroke-linecap:round;stroke-linejoin:round;stroke-dasharray:none"
         d="M 24.480283,23.901849 C 23.040927,23.836647 9.7979639,28.034367 14.35517,16.641351 16.295938,11.789431 11.425105,8.6662408 7.5193618,8.6662408 0.68355203,8.6662419 -2.7343532,13.223446 -5.0129564,17.780653 v 22.786032 c 6.2931618,-7.975111 15.9502214,-5.696508 14.8109203,1.139302 -1.5572579,9.343546 8.6033291,8.434448 13.6716191,3.417904 4.159158,-5.17263 6.318186,-0.776213 9.318186,1.223787 0,-4.284977 -3.653743,-18.222915 -8.307486,-22.445829 z"
         sodipodi:nodetypes="cssccsccc" /><path
         style="opacity:0.590855;mix-blend-mode:normal;fill:#538462;fill-opacity:1;stroke:none;stroke-width:2.5;stroke-linecap:round;stroke-linejoin:round;stroke-dasharray:none;filter:url(#filter17)"
         d="m 12.855884,31.655037 7.021845,6.144115 C 19.109657,22.265979 20.408706,16.158883 21.633191,9.7117698 15.637995,8.1955833 17.09154,12.090941 16.366807,7.9563084 l -4.674178,1.1573423 z"
         id="path10"
         sodipodi:nodetypes="cccccc"
         transform="matrix(1.1393016,0,0,1.1393016,-10.858959,-1.716956)" /><path
         style="opacity:0.66909;fill:#3a5e47;stroke:none;stroke-width:2.5;stroke-linecap:round;stroke-linejoin:round;stroke-dasharray:none;filter:url(#filter16)"
         d="m 26.848945,26.116721 c 5.896666,0.55124 6.490129,11.987561 6.151054,17.883278 1.902486,-2.307557 5.360819,-8.210513 6.940223,-10.564225 L 35.482117,23.313688 Z"
         id="path11"
         sodipodi:nodetypes="ccccc"
         transform="matrix(1.1393016,0,0,1.1393016,-13.139785,-3.3279097)" /><g
         id="g34"
         transform="matrix(1.1393016,0,0,1.1393016,-13.669881,-4.1099731)"
         style="stroke:#3a5e47;stroke-opacity:1"><path
           style="opacity:0.392189;fill:none;fill-opacity:1;stroke:#3a5e47;stroke-width:0.5;stroke-linecap:round;stroke-linejoin:round;stroke-dasharray:none;stroke-opacity:1"
           d="m 8.4931932,21.999999 c 0,0 3.2922428,-3.507129 5.5068068,-4 4.493193,-1 1.972224,-7.785924 1.972224,-7.785924"
           id="path17"
           sodipodi:nodetypes="csc" /><path
           style="opacity:0.30278096;fill:none;fill-opacity:1;stroke:#3a5e47;stroke-width:0.5;stroke-linecap:round;stroke-linejoin:round;stroke-dasharray:none;stroke-opacity:1"
           d="m 9.4931925,24.999999 c 0,0 5.2194485,-5.21639 7.4340125,-5.709261 C 21.420398,18.290738 21.999999,11 21.999999,11"
           id="path17-0"
           sodipodi:nodetypes="csc" /><path
           style="opacity:0.392189;fill:none;fill-opacity:1;stroke:#3a5e47;stroke-width:0.5;stroke-linecap:round;stroke-linejoin:round;stroke-dasharray:none;stroke-opacity:1"
           d="m 8.565987,33.70926 c 0,0 5.228519,-7.735606 6.903662,-9.265676 5.474073,-5 9.53035,-3.443585 9.53035,-3.443585"
           id="path17-0-7"
           sodipodi:nodetypes="csc" /><path
           style="opacity:0.60083439;fill:none;fill-opacity:1;stroke:#3a5e47;stroke-width:0.5;stroke-linecap:round;stroke-linejoin:round;stroke-dasharray:none;stroke-opacity:1"
           d="m 14.782993,35.39778 c 0,0 6.284796,-8.179191 7.959939,-9.709261 5.474073,-5 14.257067,10.31148 14.257067,10.31148 m -2.645833,-3.704166"
           id="path17-0-7-6"
           sodipodi:nodetypes="csc" /><path
           style="opacity:0.392189;fill:none;fill-opacity:1;stroke:#3a5e47;stroke-width:0.5;stroke-linecap:round;stroke-linejoin:round;stroke-dasharray:none;stroke-opacity:1"
           d="m 19.999999,34.999999 c 0,0 3.574857,-2.65785 5.25,-4.18792 5.474073,-5 12.75,8.18792 12.75,8.18792"
           id="path17-0-7-6-5"
           sodipodi:nodetypes="csc" /><path
           id="path18"
           style="opacity:0.26207504;fill:none;stroke:#3a5e47;stroke-width:0.499999;stroke-linecap:round;stroke-linejoin:round;stroke-opacity:1"
           d="m 32.999999,37.999999 c 10e-7,1.367588 -1.928079,-1 -4,-1 -2.071921,0 -4.751544,0.843823 -4.751543,-0.523765 0,-1.367588 1.679623,-3.476235 3.751543,-3.476235 2.07192,0 5,3.632412 5,5 z"
           sodipodi:nodetypes="sssss" /><path
           style="opacity:0.60780922;fill:none;fill-opacity:1;stroke:#3a5e47;stroke-width:0.499999;stroke-linecap:round;stroke-linejoin:round;stroke-dasharray:none;stroke-opacity:1"
           d="m 21.999999,40.999997 c 5.131214,3.415713 6.497763,1.870527 9.388826,2.334273"
           id="path19"
           sodipodi:nodetypes="cc" /></g><path
         id="path1-9-0"
         style="baseline-shift:baseline;display:inline;overflow:visible;opacity:1;fill:#252924;stroke:#1a1c18;stroke-width:2.91388;stroke-linecap:round;stroke-linejoin:round;stroke-dasharray:none;enable-background:accumulate;stop-color:#000000;stop-opacity:1;fill-opacity:1;stroke-opacity:1"
         d="m 7.9846184,5.7804007 c -3.6668548,1.2e-6 -6.5381478,1.3223429 -8.70582299,3.2714435 -2.16767651,1.9490998 -3.65792231,3.8484798 -4.82984021,6.3072278 -0.078907,0.165702 -0.1199791,0.348393 -0.1199668,0.533621 v 25.268564 c 8.857e-4,1.131787 1.3624586,1.627195 2.0312022,0.739051 2.93495835,-3.901724 6.5534065,-5.778559 9.1310012,-5.400845 1.2887962,0.188857 2.3004118,0.630091 2.9356579,1.45989 0.6352461,0.829798 0.9515196,1.92832 0.7115668,3.438623 -0.4213662,2.652141 -0.046358,4.286878 0.9823995,5.81431 1.028763,1.527433 2.668189,2.311833 4.391724,2.502164 3.44707,0.380662 7.476335,-1.870349 10.253359,-4.753781 0.990964,-1.028682 -0.795535,-1.519924 -1.649535,-0.633689 -2.285429,2.373001 -5.885907,3.7898 -8.390029,3.513269 -1.25206,-0.138267 -2.174941,-0.622631 -2.769821,-1.505864 -0.594879,-0.883233 -0.929737,-2.301697 -0.57337,-4.544731 0.329041,-2.071043 -0.132871,-3.956346 -1.182614,-5.327585 -1.049743,-1.371238 -2.6296616,-2.207572 -4.39584,-2.466382 -2.8609914,-0.41926 -5.91735144,0.726155 -8.8854538,3.508951 V 16.84396 C -1.996262,14.606703 -0.99815514,12.446158 0.75902849,10.866158 2.5743165,9.2339115 4.8235907,8.1684377 7.984673,8.1684377 c 1.6472958,0 3.616836,0.7469045 4.821019,1.9444813 1.204181,1.197576 2.135769,2.551859 1.319695,4.69207 -1.200992,3.149684 -1.349751,5.535302 -0.275806,7.232584 1.073947,1.697283 2.690555,2.273533 4.77744,2.279563 13.254538,-0.208756 10.437798,17.795724 10.979311,26.827308 l -8.725231,5.611977 18.502522,2.158547 11.863185,-21.689114 -7.558495,4.844547 c -3.563318,-7.039968 -2.493828,-19.25705 -7.088624,-22.475666 -5.174651,-3.6248 -9.068726,2.360077 -17.966201,2.334365 -1.746076,-0.005 -2.808271,-0.424188 -3.253804,-1.128317 -0.445534,-0.70413 -0.5863,-2.207923 0.488687,-5.027151 C 16.99083,12.829907 16.092013,10.09033 14.372905,8.380652 12.653797,6.6709757 10.238623,5.7804007 7.984673,5.7804007 Z"
         sodipodi:nodetypes="ssccccsssssccsssscccsssssscccccscsssss" /></g><g
       id="g46-5"
       transform="translate(9.2580568,-0.34767537)"
       style="fill:#1a1c18;fill-opacity:1"><ellipse
         style="opacity:1;fill:#1a1c18;fill-opacity:1;stroke:none;stroke-width:1;stroke-linecap:square"
         id="path1"
         cx="-3.8005753"
         cy="38.962189"
         rx="1.5883452"
         ry="2.3854849" /></g></g></svg>
